<svg width="19" height="19" viewBox="0 0 19 19" fill="none" xmlns="http://www.w3.org/2000/svg">
<path d="M2.14 12.77V17.59C2.14263 17.8323 2.24072 18.0637 2.41297 18.2341C2.58522 18.4045 2.81772 18.5 3.06 18.5H8.68V12.77H2.14ZM10.32 18.5H15.94C16.1823 18.5 16.4148 18.4045 16.587 18.2341C16.7593 18.0637 16.8574 17.8323 16.86 17.59V12.77H10.32V18.5ZM17.6 4.59H15.76C15.9491 4.20746 16.0483 3.78674 16.05 3.36C16.0474 2.60056 15.7438 1.87313 15.2059 1.33706C14.6679 0.800996 13.9394 0.499995 13.18 0.5C12.3866 0.537624 11.6201 0.798905 10.9689 1.25367C10.3178 1.70843 9.80851 2.33811 9.5 3.07C9.19149 2.33811 8.68224 1.70843 8.03107 1.25367C7.37989 0.798905 6.61336 0.537624 5.82 0.5C5.06056 0.499995 4.33207 0.800996 3.79413 1.33706C3.25619 1.87313 2.95265 2.60056 2.95 3.36C2.95167 3.78674 3.05086 4.20746 3.24 4.59H1.4C0.9 4.59 0.5 5.18 0.5 5.9V9.83C0.5 10.55 0.9 11.14 1.4 11.14H8.68V4.59H10.32V11.14H17.6C18.1 11.14 18.5 10.55 18.5 9.83V5.9C18.5 5.18 18.1 4.59 17.6 4.59ZM5.82 4.59C5.64983 4.60539 5.47832 4.58516 5.3164 4.53059C5.15448 4.47602 5.00571 4.38832 4.87956 4.27307C4.75342 4.15782 4.65267 4.01755 4.58374 3.8612C4.51481 3.70486 4.47921 3.53587 4.47921 3.365C4.47921 3.19413 4.51481 3.02514 4.58374 2.8688C4.65267 2.71245 4.75342 2.57218 4.87956 2.45693C5.00571 2.34168 5.15448 2.25398 5.3164 2.19941C5.47832 2.14484 5.64983 2.12461 5.82 2.14C7.22 2.14 8.01 3.58 8.4 4.59H5.82ZM13.18 4.59H10.6C10.99 3.59 11.78 2.14 13.18 2.14C13.3502 2.12461 13.5217 2.14484 13.6836 2.19941C13.8455 2.25398 13.9943 2.34168 14.1204 2.45693C14.2466 2.57218 14.3473 2.71245 14.4163 2.8688C14.4852 3.02514 14.5208 3.19413 14.5208 3.365C14.5208 3.53587 14.4852 3.70486 14.4163 3.8612C14.3473 4.01755 14.2466 4.15782 14.1204 4.27307C13.9943 4.38832 13.8455 4.47602 13.6836 4.53059C13.5217 4.58516 13.3502 4.60539 13.18 4.59Z" fill="white"/>
</svg>
