<svg width="22" height="22" viewBox="0 0 14 14" fill="none" xmlns="http://www.w3.org/2000/svg">
<g clip-path="url(#clip0_1_523)">
<circle cx="7.00125" cy="7.00125" r="6.72" fill="white"/>
<path d="M12.7212 5.85494H12.2513V5.83073H7.0013V8.16406H10.298C9.81705 9.52235 8.52468 10.4974 7.0013 10.4974C5.06843 10.4974 3.5013 8.93027 3.5013 6.9974C3.5013 5.06452 5.06843 3.4974 7.0013 3.4974C7.89351 3.4974 8.70522 3.83398 9.32326 4.38377L10.9732 2.73381C9.93139 1.76285 8.5378 1.16406 7.0013 1.16406C3.77984 1.16406 1.16797 3.77594 1.16797 6.9974C1.16797 10.2189 3.77984 12.8307 7.0013 12.8307C10.2228 12.8307 12.8346 10.2189 12.8346 6.9974C12.8346 6.60627 12.7944 6.22448 12.7212 5.85494Z" fill="#FFC107"/>
<path d="M1.83984 4.28227L3.75639 5.68781C4.27497 4.4039 5.53089 3.4974 7.00059 3.4974C7.8928 3.4974 8.70451 3.83398 9.32255 4.38377L10.9725 2.73381C9.93068 1.76285 8.53709 1.16406 7.00059 1.16406C4.76001 1.16406 2.81693 2.42902 1.83984 4.28227Z" fill="#FF3D00"/>
<path d="M7.00172 12.8306C8.50847 12.8306 9.87755 12.254 10.9127 11.3163L9.10726 9.78852C8.50202 10.2491 7.76226 10.4981 7.00172 10.4973C5.48447 10.4973 4.19618 9.52981 3.71084 8.17969L1.80859 9.64531C2.77401 11.5344 4.73459 12.8306 7.00172 12.8306Z" fill="#4CAF50"/>
<path d="M12.7199 5.86015H12.25V5.83594H7V8.16927H10.2967C10.0666 8.81573 9.65223 9.38061 9.10467 9.79415L9.10554 9.79356L10.911 11.3213C10.7832 11.4374 12.8333 9.91927 12.8333 7.0026C12.8333 6.61148 12.7931 6.22969 12.7199 5.86015Z" fill="#1976D2"/>
</g>
<defs>
<clipPath id="clip0_1_523">
<rect width="22" height="22" fill="white"/>
</clipPath>
</defs>
</svg>
