<svg width="19" height="19" viewBox="0 0 19 19" fill="none" xmlns="http://www.w3.org/2000/svg">
<path d="M10.0294 18.5L9.76471 15.8H9.5C6.99412 15.8 4.86765 15.0575 3.12059 13.5725C1.37353 12.0875 0.5 10.28 0.5 8.15C0.5 6.02 1.37353 4.2125 3.12059 2.7275C4.86765 1.2425 6.99412 0.5 9.5 0.5C10.7529 0.5 11.9222 0.6986 13.0079 1.0958C14.0935 1.493 15.0465 2.0405 15.8667 2.7383C16.6869 3.4361 17.3307 4.2461 17.798 5.1683C18.2653 6.0905 18.4993 7.0844 18.5 8.15C18.5 9.275 18.284 10.355 17.852 11.39C17.42 12.425 16.8285 13.385 16.0774 14.27C15.3264 15.155 14.4352 15.9575 13.4039 16.6775C12.3726 17.3975 11.2478 18.005 10.0294 18.5ZM9.47353 13.0775C9.77353 13.0775 10.0294 12.9875 10.2412 12.8075C10.4529 12.6275 10.5588 12.41 10.5588 12.155C10.5588 11.9 10.4529 11.6825 10.2412 11.5025C10.0294 11.3225 9.77353 11.2325 9.47353 11.2325C9.17353 11.2325 8.91765 11.3225 8.70588 11.5025C8.49412 11.6825 8.38824 11.9 8.38824 12.155C8.38824 12.41 8.49412 12.6275 8.70588 12.8075C8.91765 12.9875 9.17353 13.0775 9.47353 13.0775ZM8.70588 10.22H10.2941C10.2941 9.77 10.3471 9.455 10.4529 9.275C10.5588 9.095 10.8941 8.765 11.4588 8.285C11.7765 8.015 12.0412 7.7225 12.2529 7.4075C12.4647 7.0925 12.5706 6.755 12.5706 6.395C12.5706 5.63 12.2664 5.0561 11.6579 4.6733C11.0494 4.2905 10.3301 4.0994 9.5 4.1C8.72353 4.1 8.07059 4.2839 7.54118 4.6517C7.01176 5.0195 6.64118 5.4656 6.42941 5.99L7.91177 6.485C8 6.23 8.16765 5.9789 8.41471 5.7317C8.66177 5.4845 9.02353 5.3606 9.5 5.36C9.97647 5.3594 10.334 5.4719 10.5726 5.6975C10.8112 5.9231 10.9301 6.1706 10.9294 6.44C10.9294 6.695 10.8412 6.9239 10.6647 7.1267C10.4882 7.3295 10.2765 7.5356 10.0294 7.745C9.41177 8.195 9.03694 8.5514 8.90494 8.8142C8.77294 9.077 8.70659 9.5456 8.70588 10.22Z" fill="white"/>
</svg>
