<svg width="28" height="28" viewBox="0 0 28 28" fill="none" xmlns="http://www.w3.org/2000/svg">
<path d="M13.9987 2.33594C15.5308 2.33594 17.0479 2.6377 18.4633 3.22401C19.8788 3.81031 21.1649 4.66968 22.2483 5.75303C23.3316 6.83638 24.191 8.1225 24.7773 9.53796C25.3636 10.9534 25.6654 12.4705 25.6654 14.0026C25.6654 17.0968 24.4362 20.0643 22.2483 22.2522C20.0604 24.4401 17.0929 25.6693 13.9987 25.6693C8.63203 25.6693 4.14036 22.0759 2.75203 17.1876L7.22037 19.0309C7.37347 19.7783 7.77977 20.4499 8.37067 20.9324C8.96156 21.4149 9.70084 21.6787 10.4637 21.6793C12.2837 21.6793 13.7654 20.1976 13.7654 18.3776V18.2259L17.732 15.3909H17.8254C20.252 15.3909 22.2237 13.4193 22.2237 10.9926C22.2237 8.56594 20.252 6.59427 17.8254 6.59427C15.3987 6.59427 13.4154 8.56594 13.4154 10.9926V11.0509L10.6504 15.0876L10.4637 15.0759C9.77537 15.0759 9.1337 15.2859 8.6087 15.6476L2.33203 13.0693C2.8337 7.06094 7.85037 2.33594 13.9987 2.33594ZM9.6587 20.0343C10.592 20.4193 11.6654 19.9876 12.0504 19.0543C12.4354 18.1209 11.992 17.0593 11.082 16.6743L9.5887 16.0559C10.1604 15.8459 10.802 15.8343 11.4087 16.0909C12.027 16.3359 12.5054 16.8143 12.7504 17.4326C13.007 18.0393 13.007 18.7159 12.7504 19.3226C12.2487 20.5826 10.767 21.1893 9.50703 20.6643C8.9237 20.4193 8.48036 19.9759 8.23536 19.4509L9.6587 20.0343ZM20.7654 10.9926C20.7654 12.6143 19.447 13.9326 17.8254 13.9326C17.0477 13.9295 16.3028 13.6184 15.754 13.0674C15.2052 12.5164 14.897 11.7703 14.897 10.9926C14.8955 10.6076 14.9702 10.2261 15.1168 9.87016C15.2634 9.51418 15.4791 9.19075 15.7513 8.91852C16.0235 8.64629 16.3469 8.43065 16.7029 8.28403C17.0589 8.13742 17.4404 8.06273 17.8254 8.06427C18.6031 8.06426 19.3491 8.37241 19.9001 8.92125C20.4512 9.47008 20.7623 10.2149 20.7654 10.9926ZM15.632 10.9926C15.632 12.2059 16.612 13.1976 17.837 13.1976C19.0504 13.1976 20.0304 12.2059 20.0304 10.9926C20.0304 9.77927 19.0504 8.7876 17.837 8.7876C16.612 8.7876 15.632 9.77927 15.632 10.9926Z" fill="white"/>
</svg>
