<svg width="26" height="26" viewBox="0 0 20 20" fill="none" xmlns="http://www.w3.org/2000/svg">
<g clip-path="url(#clip0_1_421)">
<path d="M17.5 0H2.5C1.11929 0 0 1.11929 0 2.5V17.5C0 18.8807 1.11929 20 2.5 20H17.5C18.8807 20 20 18.8807 20 17.5V2.5C20 1.11929 18.8807 0 17.5 0Z" fill="#0080FF" fill-opacity="0.1"/>
<path d="M7.34444 7.27705L9.62005 9.5526M10.8792 8.91544L12.2749 10.3112L13.4127 9.17338L12.1365 7.89716M9.24077 4.43254L8.48227 3.48438H6.58594V5.3807L7.72371 6.32888M13.4127 3.48438V5.3807L9.24077 8.7941L7.72371 10.3112L6.58594 9.17338L8.10299 7.65627L11.5164 3.48438H13.4127Z" stroke="#0080FF" stroke-width="1.22882" stroke-linecap="round" stroke-linejoin="round"/>
<path d="M6.42307 16.518C5.91657 16.518 5.49124 16.3555 5.15195 16.0306C4.81266 15.7008 4.64062 15.2851 4.64062 14.7785C4.64062 14.2672 4.81266 13.8515 5.15195 13.5265C5.49124 13.2016 5.92613 13.0391 6.44702 13.0391C6.83407 13.0391 7.16857 13.1251 7.45052 13.2923V13.9709C7.13991 13.7798 6.82452 13.6842 6.4948 13.6842C6.15546 13.6842 5.8783 13.7846 5.6633 13.99C5.44824 14.1907 5.3431 14.4583 5.3431 14.7928C5.3431 15.1226 5.44824 15.3902 5.65374 15.5861C5.85919 15.7821 6.11724 15.8824 6.42307 15.8824C6.71457 15.8824 6.93919 15.8107 7.09691 15.6626V14.5109H7.78502V15.9876C7.64646 16.1357 7.4553 16.2647 7.21157 16.3651C6.96785 16.4655 6.70502 16.518 6.42307 16.518Z" fill="#0080FF"/>
<path d="M9.12014 15.7377C9.24436 15.8667 9.40209 15.9289 9.59325 15.9289C9.78436 15.9289 9.94209 15.8667 10.0663 15.7377C10.1906 15.6086 10.2527 15.451 10.2527 15.2598C10.2527 15.0686 10.1906 14.911 10.0663 14.7867C9.94209 14.6577 9.78436 14.5956 9.59325 14.5956C9.40209 14.5956 9.24436 14.6577 9.12014 14.7867C8.99586 14.911 8.93375 15.0686 8.93375 15.2598C8.93375 15.451 8.99586 15.6086 9.12014 15.7377ZM8.26953 15.2598C8.26953 14.9062 8.39375 14.6099 8.64225 14.371C8.89075 14.1273 9.20614 14.0078 9.59325 14.0078C9.98031 14.0078 10.2957 14.1273 10.5442 14.371C10.7927 14.6147 10.9169 14.911 10.9169 15.2598C10.9169 15.6182 10.7927 15.9145 10.5442 16.1582C10.2957 16.3971 9.98031 16.5166 9.59325 16.5166C9.20614 16.5166 8.89075 16.3971 8.64225 16.1582C8.39375 15.9145 8.26953 15.6182 8.26953 15.2598Z" fill="#0080FF"/>
<path d="M12.0497 16.5167C11.6817 16.5167 11.4141 16.335 11.4141 15.8572V13.1094H12.0879V15.6804C12.0879 15.838 12.1596 15.9193 12.3029 15.9193C12.3698 15.9193 12.4272 15.9049 12.475 15.8763V16.4306C12.3603 16.488 12.2169 16.5167 12.0497 16.5167Z" fill="#0080FF"/>
<path d="M13.9003 16.5167C13.5754 16.5167 13.3078 16.3972 13.0927 16.1582C12.8825 15.9145 12.7773 15.6182 12.7773 15.2598C12.7773 14.9062 12.8825 14.6099 13.0927 14.371C13.3078 14.1273 13.5754 14.0078 13.9003 14.0078C14.2396 14.0078 14.4977 14.1273 14.6841 14.3614V13.1094H15.3578V16.4545H14.6841V16.163C14.5072 16.3972 14.2444 16.5167 13.9003 16.5167ZM14.0915 15.9289C14.3543 15.9289 14.5742 15.7759 14.6841 15.5704V14.9492C14.5742 14.7437 14.3543 14.5956 14.0915 14.5956C13.9051 14.5956 13.7475 14.6577 13.628 14.7867C13.5085 14.9158 13.4464 15.0734 13.4464 15.2598C13.4464 15.451 13.5085 15.6087 13.628 15.7377C13.7475 15.8667 13.9051 15.9289 14.0915 15.9289Z" fill="#0080FF"/>
</g>
<defs>
<clipPath id="clip0_1_421">
<rect width="26" height="26" fill="white"/>
</clipPath>
</defs>
</svg>
