<svg width="36" height="36" viewBox="0 0 36 36" fill="none" xmlns="http://www.w3.org/2000/svg">
<g clip-path="url(#clip0_1_64)">
<path d="M31.5 0H4.5C2.01472 0 0 2.01472 0 4.5V31.5C0 33.9853 2.01472 36 4.5 36H31.5C33.9853 36 36 33.9853 36 31.5V4.5C36 2.01472 33.9853 0 31.5 0Z" fill="#FFE500" fill-opacity="0.1"/>
<path d="M13.2208 13.0924L17.3169 17.1884M19.5834 16.0415L22.0956 18.5538L24.1437 16.5058L21.8465 14.2086M16.6342 7.97232L15.2689 6.26562H11.8555V9.67902L13.9035 11.3857M24.1437 6.26562V9.67902L16.6342 15.8231L13.9035 18.5538L11.8555 16.5058L14.5862 13.775L20.7303 6.26562H24.1437Z" stroke="#FFE500" stroke-width="1.22882" stroke-linecap="round" stroke-linejoin="round"/>
<path d="M11.5639 29.7309C10.6522 29.7309 9.88658 29.4384 9.27586 28.8535C8.66513 28.26 8.35547 27.5116 8.35547 26.5998C8.35547 25.6795 8.66513 24.9311 9.27586 24.3462C9.88658 23.7613 10.6694 23.4688 11.607 23.4688C12.3037 23.4688 12.9058 23.6236 13.4133 23.9247V25.1461C12.8542 24.8021 12.2865 24.63 11.693 24.63C11.0822 24.63 10.5833 24.8107 10.1963 25.1805C9.80917 25.5418 9.61993 26.0235 9.61993 26.6256C9.61993 27.2192 9.80917 27.7009 10.1791 28.0535C10.5489 28.4062 11.0134 28.5868 11.5639 28.5868C12.0886 28.5868 12.4929 28.4578 12.7768 28.1912V26.1181H14.0154V28.7761C13.766 29.0427 13.4219 29.275 12.9832 29.4556C12.5445 29.6363 12.0714 29.7309 11.5639 29.7309Z" fill="#FFE500"/>
<path d="M16.4178 28.3247C16.6414 28.5569 16.9253 28.6688 17.2694 28.6688C17.6134 28.6688 17.8973 28.5569 18.1209 28.3247C18.3446 28.0924 18.4564 27.8086 18.4564 27.4645C18.4564 27.1204 18.3446 26.8366 18.1209 26.6129C17.8973 26.3807 17.6134 26.2689 17.2694 26.2689C16.9253 26.2689 16.6414 26.3807 16.4178 26.6129C16.1941 26.8366 16.0823 27.1204 16.0823 27.4645C16.0823 27.8086 16.1941 28.0924 16.4178 28.3247ZM14.8867 27.4645C14.8867 26.828 15.1103 26.2947 15.5576 25.8646C16.0049 25.4259 16.5726 25.2109 17.2694 25.2109C17.9661 25.2109 18.5338 25.4259 18.9811 25.8646C19.4284 26.3033 19.652 26.8366 19.652 27.4645C19.652 28.1096 19.4284 28.643 18.9811 29.0816C18.5338 29.5117 17.9661 29.7268 17.2694 29.7268C16.5726 29.7268 16.0049 29.5117 15.5576 29.0816C15.1103 28.643 14.8867 28.1096 14.8867 27.4645Z" fill="#FFE500"/>
<path d="M21.691 29.7268C21.0286 29.7268 20.5469 29.3999 20.5469 28.5397V23.5938H21.7598V28.2215C21.7598 28.5054 21.8888 28.6516 22.1468 28.6516C22.2673 28.6516 22.3705 28.6258 22.4565 28.5742V29.5719C22.2501 29.6752 21.992 29.7268 21.691 29.7268Z" fill="#FFE500"/>
<path d="M25.0214 29.7268C24.4365 29.7268 23.9548 29.5117 23.5677 29.0816C23.1892 28.643 23 28.1097 23 27.4646C23 26.8281 23.1892 26.2947 23.5677 25.8646C23.9548 25.4259 24.4365 25.2109 25.0214 25.2109C25.6321 25.2109 26.0966 25.426 26.4321 25.8475V23.5938H27.6449V29.615H26.4321V29.0903C26.1138 29.5118 25.6407 29.7268 25.0214 29.7268ZM25.3655 28.6688C25.8386 28.6688 26.2343 28.3935 26.4321 28.0236V26.9054C26.2343 26.5355 25.8386 26.2689 25.3655 26.2689C25.03 26.2689 24.7462 26.3807 24.5311 26.6129C24.3161 26.8452 24.2043 27.1291 24.2043 27.4646C24.2043 27.8087 24.3161 28.0924 24.5311 28.3247C24.7462 28.5569 25.03 28.6688 25.3655 28.6688Z" fill="#FFE500"/>
</g>
<defs>
<clipPath id="clip0_1_64">
<rect width="36" height="36" fill="white"/>
</clipPath>
</defs>
</svg>
