<svg width="22" height="22" viewBox="0 0 14 14" fill="none" xmlns="http://www.w3.org/2000/svg">
<g clip-path="url(#clip0_1_521)">
<path d="M7.00125 0.28125C3.29181 0.28125 0.28125 3.29181 0.28125 7.00125C0.28125 10.7107 3.29181 13.7212 7.00125 13.7212C10.7107 13.7212 13.7212 10.7107 13.7212 7.00125C13.7212 3.29181 10.7107 0.28125 7.00125 0.28125ZM10.1193 4.85085C10.0185 5.91261 9.58173 8.49309 9.35997 9.68253C9.26589 10.1865 9.07773 10.3545 8.90301 10.3747C8.51325 10.4083 8.21757 10.1193 7.84125 9.87069C7.24989 9.48093 6.91389 9.23901 6.34269 8.86269C5.67741 8.42589 6.10749 8.18397 6.49053 7.79421C6.59133 7.69341 8.31165 6.12765 8.34525 5.98653C8.34992 5.96516 8.3493 5.94297 8.34344 5.92189C8.33758 5.90081 8.32667 5.88147 8.31165 5.86557C8.27133 5.83197 8.21757 5.84541 8.17053 5.85213C8.11005 5.86557 7.16925 6.49053 5.33469 7.72701C5.06589 7.90845 4.82397 8.00253 4.60893 7.99581C4.36701 7.98909 3.91005 7.86141 3.56733 7.74717C3.14397 7.61277 2.81469 7.53885 2.84157 7.30365C2.85501 7.18269 3.02301 7.06173 3.33885 6.93405C5.30109 6.08061 6.60477 5.51613 7.25661 5.24733C9.12477 4.46781 9.50781 4.33341 9.76317 4.33341C9.81693 4.33341 9.94461 4.34685 10.0252 4.41405C10.0924 4.46781 10.1126 4.54173 10.1193 4.59549C10.1126 4.63581 10.126 4.75677 10.1193 4.85085Z" fill="#169AE0"/>
<path d="M10.1193 4.85085C10.0185 5.91261 9.58173 8.49309 9.35997 9.68253C9.26589 10.1865 9.07773 10.3545 8.90301 10.3747C8.51325 10.4083 8.21757 10.1193 7.84125 9.87069C7.24989 9.48093 6.91389 9.23901 6.34269 8.86269C5.67741 8.42589 6.10749 8.18397 6.49053 7.79421C6.59133 7.69341 8.31165 6.12765 8.34525 5.98653C8.34992 5.96516 8.3493 5.94297 8.34344 5.92189C8.33758 5.90081 8.32667 5.88147 8.31165 5.86557C8.27133 5.83197 8.21757 5.84541 8.17053 5.85213C8.11005 5.86557 7.16925 6.49053 5.33469 7.72701C5.06589 7.90845 4.82397 8.00253 4.60893 7.99581C4.36701 7.98909 3.91005 7.86141 3.56733 7.74717C3.14397 7.61277 2.81469 7.53885 2.84157 7.30365C2.85501 7.18269 3.02301 7.06173 3.33885 6.93405C5.30109 6.08061 6.60477 5.51613 7.25661 5.24733C9.12477 4.46781 9.50781 4.33341 9.76317 4.33341C9.81693 4.33341 9.94461 4.34685 10.0252 4.41405C10.0924 4.46781 10.1126 4.54173 10.1193 4.59549C10.1126 4.63581 10.126 4.75677 10.1193 4.85085Z" fill="white"/>
</g>
<defs>
<clipPath id="clip0_1_521">
<rect width="22" height="22" fill="white"/>
</clipPath>
</defs>
</svg>
