<svg width="14" height="14" viewBox="0 0 14 14" fill="none" xmlns="http://www.w3.org/2000/svg">
<g clip-path="url(#clip0_1_519)">
<path d="M7.00125 0.28125C3.28985 0.28125 0.28125 3.28985 0.28125 7.00125C0.28125 10.7127 3.28985 13.7213 7.00125 13.7213C10.7127 13.7213 13.7213 10.7127 13.7213 7.00125C13.7213 3.28985 10.7127 0.28125 7.00125 0.28125ZM9.58565 7.86295C9.58565 7.86295 10.1799 8.44955 10.3263 8.72185C10.3305 8.72792 10.333 8.73258 10.334 8.73585C10.3932 8.83525 10.4079 8.91388 10.3781 8.97175C10.3291 9.06835 10.161 9.11595 10.1037 9.12015H9.05365C8.98085 9.12015 8.82825 9.10125 8.64345 8.97385C8.50162 8.87464 8.36188 8.71197 8.22562 8.55335L8.22485 8.55245C8.02115 8.31585 7.84475 8.11145 7.66695 8.11145C7.64436 8.11135 7.62191 8.1149 7.60045 8.12195C7.46605 8.16535 7.29385 8.35715 7.29385 8.86815C7.29385 9.02775 7.16785 9.11945 7.07895 9.11945H6.59805C6.43425 9.11945 5.58095 9.06205 4.82495 8.26475C3.89955 7.28825 3.06655 5.32965 3.05955 5.31145C3.00705 5.18475 3.11555 5.11685 3.23385 5.11685H4.29435C4.43575 5.11685 4.48195 5.20295 4.51415 5.27925C4.55195 5.36815 4.69055 5.72165 4.91805 6.11925C5.28695 6.76745 5.51305 7.03065 5.69435 7.03065C5.72834 7.03025 5.76173 7.0216 5.79165 7.00545C6.02825 6.87385 5.98415 6.03035 5.97365 5.85535C5.97365 5.82245 5.97295 5.47805 5.85185 5.31285C5.76505 5.19315 5.61735 5.14765 5.52775 5.13085C5.56402 5.08081 5.61179 5.04023 5.66705 5.01255C5.82945 4.93135 6.12205 4.91945 6.41255 4.91945H6.57425C6.88925 4.92365 6.97045 4.94395 7.08455 4.97265C7.31555 5.02795 7.32045 5.17705 7.30015 5.68735C7.29385 5.83225 7.28755 5.99605 7.28755 6.18925L7.28545 6.32365L7.2854 6.32555C7.27841 6.58478 7.2705 6.87834 7.45345 6.99915C7.4771 7.01475 7.50493 7.0228 7.53325 7.02225C7.59695 7.02225 7.78875 7.02225 8.30815 6.13115C8.46774 5.84402 8.60691 5.54602 8.72465 5.23935C8.73515 5.22115 8.76595 5.16515 8.80235 5.14345C8.8295 5.13055 8.8591 5.12363 8.88915 5.12315H10.1358C10.2717 5.12315 10.3647 5.14345 10.3822 5.19595C10.413 5.27925 10.3766 5.53335 9.80755 6.30405L9.55345 6.63935C9.03755 7.31555 9.03755 7.34985 9.58565 7.86295Z" fill="#2369F5"/>
<path d="M9.58565 7.86295C9.58565 7.86295 10.1799 8.44955 10.3263 8.72185C10.3305 8.72792 10.333 8.73258 10.334 8.73585C10.3932 8.83525 10.4079 8.91388 10.3781 8.97175C10.3291 9.06835 10.161 9.11595 10.1037 9.12015H9.05365C8.98085 9.12015 8.82825 9.10125 8.64345 8.97385C8.50162 8.87464 8.36188 8.71197 8.22562 8.55335L8.22485 8.55245C8.02115 8.31585 7.84475 8.11145 7.66695 8.11145C7.64436 8.11135 7.62191 8.1149 7.60045 8.12195C7.46605 8.16535 7.29385 8.35715 7.29385 8.86815C7.29385 9.02775 7.16785 9.11945 7.07895 9.11945H6.59805C6.43425 9.11945 5.58095 9.06205 4.82495 8.26475C3.89955 7.28825 3.06655 5.32965 3.05955 5.31145C3.00705 5.18475 3.11555 5.11685 3.23385 5.11685H4.29435C4.43575 5.11685 4.48195 5.20295 4.51415 5.27925C4.55195 5.36815 4.69055 5.72165 4.91805 6.11925C5.28695 6.76745 5.51305 7.03065 5.69435 7.03065C5.72834 7.03025 5.76173 7.0216 5.79165 7.00545C6.02825 6.87385 5.98415 6.03035 5.97365 5.85535C5.97365 5.82245 5.97295 5.47805 5.85185 5.31285C5.76505 5.19315 5.61735 5.14765 5.52775 5.13085C5.56402 5.08081 5.61179 5.04023 5.66705 5.01255C5.82945 4.93135 6.12205 4.91945 6.41255 4.91945H6.57425C6.88925 4.92365 6.97045 4.94395 7.08455 4.97265C7.31555 5.02795 7.32045 5.17705 7.30015 5.68735C7.29385 5.83225 7.28755 5.99605 7.28755 6.18925L7.28545 6.32365L7.2854 6.32555C7.27841 6.58478 7.2705 6.87834 7.45345 6.99915C7.4771 7.01475 7.50493 7.0228 7.53325 7.02225C7.59695 7.02225 7.78875 7.02225 8.30815 6.13115C8.46774 5.84402 8.60691 5.54602 8.72465 5.23935C8.73515 5.22115 8.76595 5.16515 8.80235 5.14345C8.8295 5.13055 8.8591 5.12363 8.88915 5.12315H10.1358C10.2717 5.12315 10.3647 5.14345 10.3822 5.19595C10.413 5.27925 10.3766 5.53335 9.80755 6.30405L9.55345 6.63935C9.03755 7.31555 9.03755 7.34985 9.58565 7.86295Z" fill="white"/>
</g>
<defs>
<clipPath id="clip0_1_519">
<rect width="14" height="14" fill="white"/>
</clipPath>
</defs>
</svg>
