<svg width="27" height="27" viewBox="0 0 27 27" fill="none" xmlns="http://www.w3.org/2000/svg">
<path fill-rule="evenodd" clip-rule="evenodd" d="M22.644 10.1449C22.5857 10.1415 22.5237 10.1401 22.4578 10.1408H19.8607C17.7336 10.1408 15.9141 11.8153 15.9141 13.9979C15.9141 16.1806 17.7346 17.8551 19.8607 17.8551H22.4578C22.5237 17.8558 22.5861 17.8544 22.645 17.851C23.0822 17.8246 23.4949 17.6402 23.8062 17.3321C24.1175 17.0241 24.3061 16.6133 24.337 16.1765C24.3411 16.1147 24.3411 16.0479 24.3411 15.9862V12.0097C24.3411 11.948 24.3411 11.8811 24.337 11.8194C24.3061 11.3826 24.1175 10.9718 23.8062 10.6637C23.4949 10.3557 23.0812 10.1713 22.644 10.1449ZM19.6334 15.0265C20.1806 15.0265 20.6239 14.5657 20.6239 13.9979C20.6239 13.4302 20.1806 12.9694 19.6334 12.9694C19.0851 12.9694 18.6418 13.4302 18.6418 13.9979C18.6418 14.5657 19.0851 15.0265 19.6334 15.0265Z" fill="white"/>
<path fill-rule="evenodd" clip-rule="evenodd" d="M22.4585 19.4C22.4941 19.3986 22.5295 19.4056 22.5618 19.4204C22.5942 19.4352 22.6226 19.4574 22.6447 19.4853C22.6669 19.5131 22.6821 19.5458 22.6893 19.5807C22.6964 19.6156 22.6952 19.6516 22.6858 19.6859C22.4801 20.4183 22.152 21.0437 21.6264 21.5682C20.856 22.3397 19.8799 22.6801 18.6744 22.8426C17.5018 23 16.0053 23 14.1147 23H11.9424C10.0519 23 8.55429 23 7.38274 22.8426C6.17726 22.6801 5.20114 22.3386 4.43074 21.5693C3.66137 20.7989 3.31989 19.8227 3.15737 18.6173C3 17.4447 3 15.9481 3 14.0576V13.9424C3 12.0519 3 10.5543 3.15737 9.38171C3.31989 8.17623 3.66137 7.20011 4.43074 6.42971C5.20114 5.66034 6.17726 5.31886 7.38274 5.15634C8.55531 5 10.0519 5 11.9424 5H14.1147C16.0053 5 17.5029 5 18.6744 5.15737C19.8799 5.31989 20.856 5.66137 21.6264 6.43074C22.152 6.95737 22.4801 7.58171 22.6858 8.31406C22.6952 8.34838 22.6964 8.38444 22.6893 8.4193C22.6821 8.45417 22.6669 8.48685 22.6447 8.51471C22.6226 8.54257 22.5942 8.56481 22.5618 8.57963C22.5295 8.59445 22.4941 8.60143 22.4585 8.6H19.8624C16.9443 8.6 14.3729 10.904 14.3729 14C14.3729 17.096 16.9443 19.4 19.8624 19.4H22.4585ZM8.14286 17.8571C7.93826 17.8571 7.74205 17.7759 7.59737 17.6312C7.4527 17.4865 7.37143 17.2903 7.37143 17.0857V10.9143C7.37143 10.7097 7.4527 10.5135 7.59737 10.3688C7.74205 10.2241 7.93826 10.1429 8.14286 10.1429C8.34745 10.1429 8.54367 10.2241 8.68834 10.3688C8.83301 10.5135 8.91429 10.7097 8.91429 10.9143V17.0857C8.91429 17.2903 8.83301 17.4865 8.68834 17.6312C8.54367 17.7759 8.34745 17.8571 8.14286 17.8571Z" fill="white"/>
</svg>
