<?xml version="1.0" encoding="UTF-8"?>
<svg id="Layer_1" data-name="Layer 1" xmlns="http://www.w3.org/2000/svg" viewBox="0 0 1000 1000">
  <defs>
    <style>
      .cls-1 {
        fill: #e22424;
      }

      .cls-2, .cls-3 {
        fill: #fff;
      }

      .cls-4 {
        fill: #168244;
      }

      .cls-3 {
        font-family: Gilroy-Semibold, Gilroy;
        font-size: 54.53px;
        font-weight: 600;
      }
    </style>
  </defs>
  <path class="cls-1" d="M827.77,37.6H172.23c-17.63,0-31.92,14.29-31.92,31.92v705.09c0,48.56,36.84,88.54,84.1,93.49,3.27.34,6.55.51,9.92.51h108.32c63.91,0,123.62,33.7,154.96,89.39.83,1.46,1.62,2.91,2.4,4.39.78-1.47,1.58-2.93,2.41-4.39,31.32-55.69,91.04-89.39,154.94-89.39h108.33c3.37,0,6.66-.18,9.92-.51,47.26-4.95,84.08-44.93,84.08-93.49V69.51c0-17.61-14.29-31.9-31.92-31.9ZM841.94,774.62c0,39.16-29.33,71.76-68.19,75.83-2.68.28-5.4.43-8.06.43h-108.33c-62.72,0-121.06,29.49-157.35,78.31-36.29-48.82-94.61-78.31-157.35-78.31h-108.32c-2.66,0-5.4-.14-8.08-.43-38.86-4.07-68.19-36.66-68.19-75.83V69.52c0-7.81,6.37-14.17,14.17-14.17h655.54c7.81,0,14.17,6.36,14.17,14.15v705.11Z"/>
  <path class="cls-4" d="M827.77,55.36H172.23c-7.79,0-14.17,6.36-14.17,14.17v705.09c0,39.16,29.33,71.76,68.19,75.83,2.68.28,5.41.43,8.08.43h108.32c62.74,0,121.06,29.49,157.35,78.31,36.29-48.82,94.63-78.31,157.35-78.31h108.33c2.66,0,5.38-.14,8.06-.43,38.86-4.07,68.19-36.66,68.19-75.83V69.51c0-7.79-6.36-14.15-14.17-14.15ZM632.76,473.97l-5.24,3.11c-.6.36-1.23.76-1.88,1.19-1.83,1.19-4.1,2.66-5.59,2.66-.37,0-.73-.11-1.21-.57l-.6-.59c-.32-.67-.78-1.26-1.28-1.86-.39-.48-1.12-1.35-1.24-1.78-1.35-4.26-.92-6.23-.32-8.98.3-1.38.64-2.95.78-4.9.14-2.01-.53-3.87-1.12-5.5-.91-2.47-1.08-3.36-.48-4.19l1.21-1.65h.09v-.11l3.16-4.28-3.21.16c.44-2.41,2.82-5.45,4.79-7.97,2.15-2.72,3.99-5.08,4.58-7.62.92-4.01.78-8.58.3-13.05l4.08-.25c3.64-.23,5.72-2.52,7.1-4.03.91-1.01,1.33-1.42,1.65-1.42.16,0,.64.04,1.53.48l.94.46c.36,4.01.53,8.08.53,12.18,0,17.03-3.04,33.36-8.58,48.5Z"/>
  <path class="cls-1" d="M641.34,425.47c0,17.03-3.04,33.36-8.58,48.5l-5.24,3.11c-.6.36-1.23.76-1.88,1.19-1.83,1.19-4.1,2.66-5.59,2.66-.37,0-.73-.11-1.21-.57l-.6-.59c-.32-.67-.78-1.26-1.28-1.86-.39-.48-1.12-1.35-1.24-1.78-1.35-4.26-.92-6.23-.32-8.98.3-1.38.64-2.95.78-4.9.14-2.01-.53-3.87-1.12-5.5-.91-2.47-1.08-3.36-.48-4.19l1.21-1.65h.09v-.11l3.16-4.28-3.21.16c.44-2.41,2.82-5.45,4.79-7.97,2.15-2.72,3.99-5.08,4.58-7.62.92-4.01.78-8.58.3-13.05l4.08-.25c3.64-.23,5.72-2.52,7.1-4.03.91-1.01,1.33-1.42,1.65-1.42.16,0,.64.04,1.53.48l.94.46c.36,4.01.53,8.08.53,12.18Z"/>
  <g>
    <g>
      <path class="cls-2" d="M589.47,451.37c-2.02,16.02-8.12,31.34-14.04,46.27-11.79-1.67-23.89.61-34.2-6.4v-.9c3.03.7,2.07-5.45,1.43-7.49-.87-2.78-5.01-5.41-7.91-5.55l11.16-30.55c14.4,2.24,28.87,4.94,43.55,4.61Z"/>
      <path class="cls-2" d="M441.91,406.93c.53.72-1.47,4.96-.69,7.59.7,2.34,5.55,5.45,5.42,6.63l-14.89,34.86c-1.57,1.45-32.81-19.69-35.7-23.16-1.35-3.13,17.16-37.22,22.36-40.81,5.17,3.41,10.07,7.18,15.28,10.55,1.52.98,7.93,3.96,8.21,4.34Z"/>
      <path class="cls-2" d="M544.93,443.95c-10.83-2.21-21.73-4.7-32.24-8.1-4.05-1.31-14.85-3.13-13.53-8.37.76-3.02,6.54-18.75,7.94-20.9.3-.46,5.98-7.23,6.37-7.55.5-.42,7.21-4.06,7.64-4.05l33.65,9.03-9.83,39.94Z"/>
      <path class="cls-2" d="M472.34,477.58c.5.54.57,2.47,1.08,3.36-8.92,4.48-2.29,6.66-.6,10.56,2.15,4.97-5.84,18.58-5.81,24.8l-42.51-17.78c-.73-13.31,4.84-25.93,7.27-38.81l40.57,17.86Z"/>
      <path class="cls-2" d="M593.18,407.77c.41,14.01-.19,27.94-2.84,41.69l-43.55-4.59,11.09-40.41c11.68,1.71,23.42,3.84,35.29,3.31Z"/>
      <path class="cls-2" d="M429.8,457.98l-8.25,38.84-32-20.4c-1.7-13.81,1.67-27.59,5.12-40.82l35.13,22.38Z"/>
      <path class="cls-2" d="M415.93,389.32c-6.91,13.71-17.93,26.15-21.27,41.65-1.4.37-1.54-.36-2.33-.91-4.16-2.91-19.16-18-20.48-22.24-1.16-3.72,5.36-15.64,7.49-19.53,1.47-2.69,12.63-20.38,13.93-20.37,6.91,7.76,13.77,15.81,22.66,21.41Z"/>
      <path class="cls-2" d="M475.1,452.56c.99.96,1.72,4.5,4.94,5.77,1.86.73,4.02-1.38,5.54,0-1.43,2.54-2.23,9.1-3.65,10.97-.7.92-2.67.79-3.85,1.92s-2.91,4.86-4.09,4.96l-40.28-18.93,13.84-33.71c.81-.62,6.58,4.53,8.02,5.42,1.87,1.15,4.01.81,5.96,2.39,2.14,1.73,2.58,5.08,4.13,7s4.27,2.47,5.3,4.9c1.16,2.71.11,6.78,1.12,8.18.58.8,2.4.52,3.03,1.12Z"/>
      <path class="cls-2" d="M593.17,405.92l-35.25-3.72c2.83-13.68,4.79-27.69,4.64-41.73,4.6,2.03,22.49.62,24.54,3.74,1.49,2.26,4.53,19.91,5.02,23.74.31,2.48,1.7,17.31,1.04,17.97Z"/>
      <path class="cls-2" d="M426.1,338.27l14.81,15.21-5.97,15.26-17.51,19.51c-8.22-6.86-16.56-13.69-22.55-22.7,3.17-3.73,28.4-29.25,31.22-27.28Z"/>
      <path class="cls-2" d="M610.8,496.84c-4.77,10.99-9.64,32.17-22.82,36.08-3.4,1.01-28.64,2.98-30.05,1.94l18.7-35.09c11.51.26,22.85-1.11,34.17-2.93Z"/>
      <path class="cls-2" d="M611.73,450.46c-2.91,3.96,1.17,8.16.91,11.53-.42,5.54-2.65,7.77-.31,15.21.59,1.86,2.72,3.64,2.79,4.3.22,1.98-3.46,9.53-3.6,12.34-10.8,2.95-22.07,3.19-33.19,3.91,6.01-14.2,10.68-29.63,14-46.29l19.39-1.01Z"/>
      <path class="cls-2" d="M392.68,432.98c-3.48,13.73-6.08,27.32-5.9,41.58-4.28-4.25-10.3-8.25-14.43-12.48-3.46-3.54-10.36-11.11-10.24-15.82.31-11.96,4.73-25.07,7.51-36.64,7.2,8.13,14.15,17.11,23.05,23.35Z"/>
      <path class="cls-2" d="M504.84,437.16c.28-.16.23-1.58.63-1.54,2.71.26,12.16,4.26,16.08,5.28,7.4,1.94,14.85,3.98,22.46,4.91l-11.14,29.68c-3.31-.45-2.63-3.52-4.54-5.21-1.13-1.01-3.04-1.01-3.56-1.53-.82-.83-.39-3.83-2.1-4.86-3.42-2.06-12.24-1.2-15.29-6.76l-5.11,4.44,2.77-6.49c-3.22.95-7.15,1.11-10.2,2.31-1.7.67-4.97,4.75-5.55,1.82-.99-5.02,4.02-13.83,5.08-18.98l.93-.91c1.51,1.77,3.38,2.88,5.09.45-.78-1.53-5.01-1.35-4.61-3.7.42-2.5,2.24-.3,2.83-.08,1.85.69,3.88,2.52,6.23,1.15ZM517.08,442.14c-6.07-.85-8.57-5.42-14.82-1.88-.45,2.42.39,1.43,1.32,1.92,3.27,1.73,8.37,2.13,12.19,2.65,2.16.3,1.25-1.09,1.3-2.69Z"/>
      <path class="cls-2" d="M459.58,543.21l-34.1-15.06c-1.96-9.08-2.35-18.34-2.06-27.61l42.27,18.51-6.11,24.15Z"/>
      <path class="cls-2" d="M620.07,405.91c1.09,7.19,3.35,17.04,1.67,24.4-.99,4.34-9.78,10.98-9.53,17.37l-19.96,1.83c3.37-13.53,3.92-27.79,3.71-41.74l24.12-1.86Z"/>
      <path class="cls-2" d="M608.82,361.52c1.42,3.37,2.73,6.29,4.95,12.62.91,2.6,1.56,5.29,2.15,7.98.91,4.18,1.79,9.04,2.2,13.08.19,1.93.28,2.39.2,3.86-.12,2.39,2.27,4.24-1.52,4.98-6.67,1.3-14.06.71-20.84,1.89-.76-14.4-2.94-28.73-6.49-42.67l19.36-1.74Z"/>
      <path class="cls-2" d="M392.82,364.18c-1.5-4.85-8.76-13.45-6.97-18.5.78-2.19,6.91-9.47,8.83-11.63,5.83-6.52,12.65-12.09,20.37-16.26.39,7.16,5.46,12.25,7.94,18.57-10.86,8.45-20.96,17.61-30.18,27.81Z"/>
      <path class="cls-2" d="M421.41,498.83l1.07,27.68c-7.05-5.32-19.37-9.78-25.5-15.77-5.67-5.54-6.01-23.69-7.88-31.54,10.38,7.11,20.72,14.54,32.31,19.63Z"/>
      <path class="cls-2" d="M465.16,313.15c-13.93,5.64-26.87,13.29-39.47,21.38-1.53.24-2.95-3.42-3.68-4.66-1.35-2.28-6.25-11.81-4.97-13.82,4.47-1.6,8.28-4.44,12.54-6.48,2.47-1.18,14.1-6.39,15.8-6.42,1.37-.02,3.51,1.98,5.61,2.36,7.6,1.39,9.49-1.16,14.16,7.62Z"/>
      <path class="cls-2" d="M553.28,536.72c.66.57-4.93,8.42-5.73,9.56-1.42,2.03-7.11,10.14-8.83,10.65-15.73.48-31.09-3.11-46.65-4.46l7.39-1.88-1.83-5.52c2.68-.71,1.49,1.81,3.39,2.59,7.68,3.14,13.83-5.73,21.71-5.84l.34-4.17c2.68-4.51,24.75.15,30.21-.93Z"/>
      <path class="cls-2" d="M482.59,406.6c.29-.17.02-1.39.64-1.62,4.07,1.15,5.04,3.42,7.55,5.48.92.75,3.04.9,3.15,1.03.18.23-1.5,3.6-1.37,5.68.05.77,1,5.05,2.77,4.53,5.28-.85-.59-16.29,9.72-15.79l-8.36,23.18c-2-1.41-2.08-2.89-4.61-4.19-5.7-2.92-6.61.58-9.31.14-2.04-.34-23-9.69-23.69-10.79-.89-1.4.58-4.87,1.54-5.96,2.06-2.34,3.88-.12,4.2-5.24,2.66-.43,5.47-1.38,8.2-.86,2.37.46,6.44,6.22,9.57,4.38Z"/>
      <path class="cls-2" d="M368.7,404.06c-.33-3.97-4.49-9.3-4.17-13.09.39-4.79,5.54-16.96,7.71-21.85,3.05-6.87,6.93-13.39,10.82-19.78l8.68,17.02-9.53,12.73-13.52,24.97Z"/>
      <path class="cls-2" d="M456.46,332.31c-2.25,3.77-1.63,3.91-3.07,7.58-2.36,5.99-6.61,8.03-10.96,12.21l-15.2-15.3c11.69-9.11,25.09-15.47,38.4-21.79,1.46.8,0,1.61-.48,2.3-3.28,4.77-5.73,10.02-8.69,14.98Z"/>
      <path class="cls-2" d="M560.69,359.55l-1.85,22.25c-.92,8.54-2.78,19.48-2.78,19.48l-31.53-7.44,7.15-5.35,3.97-.19-1.84,2.31c1.35,3.53,10.45-1.36,11.11-2.79.77-1.68-4.39-2.69-4.49-4.8-1.02-2.83,1.41-2.08,2.2-3.02,2.01-2.4-2.53-3.15-4.6-2.81-.59.1-6.8,3.82-4.24.44,4.53-4.84,11.93,1.08,15.11.32.71-.17,7.13-5.43,7.12-5.89-2.02-.92-2.22-3.84-3.06-4.78-3.17-3.53-6.92-1.79-5.25-9.6l12.97,1.87Z"/>
      <path class="cls-2" d="M391.87,507.03c-5.9-4.42-12.05-7.82-15.92-14.22-6.77-11.2-10.46-26.07-13.75-38.65,7.68,8.29,15.54,16.34,24.58,23.18l5.08,29.7Z"/>
      <path class="cls-2" d="M553.97,319.89c2.59,2.02.67,9.05,4.87,9.05l-.09,1.76c-3.24.63-3.54,6.33,1.01,3.79.46,2.38-1.98,3.68-1.87,5.95s2.36,3.55,2.77,5.69c.65,3.41-.37,7.97.04,11.55-4.15-.9-8.55-1.5-12.65-2.62-1.34-.37-1.18-1.88-1.84-1.97-1.61-.22-5.05,1.63-6.76-1.54l1-3.02,5.41-.14-1.85-3.7c9.16,1.86.7-2.18.94-6.5l4.62,3.71c1.84-5.87-2.31-5.46-3.26-7.39-1.11-2.24.05-5.29-.64-7.72-.56-1.98-5.12-4.75-3.79-7.8l2.4-1.99,9.68,2.88Z"/>
      <path class="cls-2" d="M588.66,360.34l-7.86-23.75,2.08-2.41c-1.94-3.86-5.63-7.04-5.48-11.74,1.92.18,4.21-.36,6.04-.01,2.33.44,11.93,14.67,13.83,17.71,3.63,5.83,6.47,12.03,9.8,18.02-.12,2.13-15.96,2.77-18.4,2.18Z"/>
      <path class="cls-2" d="M456.81,558.98c-.98,1.07-22.08-7.96-24.07-9.79-1.81-1.66-7.23-17.14-6.53-18.04l32.06,13.88-1.46,13.95Z"/>
      <path class="cls-2" d="M538.44,558.99c.22,1.34-1.61,1.25-2.58,1.57-16.12,5.24-36.39,5.86-53.07,3.98,2.53-2.37,5.44-9.78,8.86-10.22,15.46,2.55,31.06,5.17,46.79,4.67Z"/>
      <path class="cls-2" d="M584.82,535.8c-7.52,6.68-17.38,12.45-26.57,16.56-5.07,2.27-10.39,5.19-16.1,4.76l13.91-19.01,28.76-2.3Z"/>
      <path class="cls-2" d="M494.85,431.9c.68.92-6.83,20.75-7.51,21.7-2.9,4.05-8.67-.61-9.02-4.78-.33-3.96,4.35-4.44,1.47-9.76-1.84-3.4-5.18-3.11-8.13-4.84l7.85-7.87,15.34,5.56Z"/>
      <path class="cls-2" d="M437.32,400.35c.81-5.66,1.03-11.48,1.86-17.17.85-5.86,3.16-4.76,2.03-.76-1.61,5.75.19,4.41.57,8.46.43,4.51-.09,9.43,1.11,14.1l-23.01-15.29,17.44-19.96c.07,1.63.1,3.26-.2,4.88-1.43,7.81-2.5,14.31-1.69,22.51.14,1.38.24,2.88,1.89,3.22Z"/>
      <path class="cls-2" d="M428.98,546.91c-.63.61-11.01-6.62-12.35-7.58-9.19-6.59-17.54-12.76-19.18-24.87l25.02,14.4,6.52,18.06Z"/>
      <path class="cls-2" d="M574.62,499.62l-18.94,34.39c-3.2,2.33-8.97-.04-12.6-.08,1.46-2.63,5.17-3.19,6.94-5.58s1.62-5.68,3.69-8.37c4.76-6.19,21.74-7.66,9.79-18.03l-11.13-4.18,22.26,1.86Z"/>
      <path class="cls-2" d="M586.68,321.52c1.89.1,3.59-1.38,5.53-.51.63.28,9.73,7.98,10.61,8.95,2.26,2.47,6.64,6.83,8.53,9.61,3.16,4.64,5.15,7.55,6.38,10.21,1.78,3.83,3.75,5.02-7.43,8.63l-.87-.67c-6.02-13.02-14.3-24.71-22.75-36.21Z"/>
      <path class="cls-2" d="M481.86,523.74c.53.57-4.65,10.16-5.55,11.36-.84,1.13-2.38,1.41-3.3,2.49-3.46,4.09-4.92,10.71-11.16,5.66l6.15-23.19,13.86,3.68Z"/>
      <path class="cls-2" d="M579.24,340.06l6.51,20.4-22.32-2.26-.41-7.01c.68,1.74,7.52,8.33,8.81,7.41,1.91-2.8.07-11.35,1.06-12.86.36-.55,2.62-.4,3.37-1.27,1.12-1.3-.05-5.24,2.99-4.42Z"/>
      <path class="cls-2" d="M522.67,335.42c.12-.39-.25-1.16.17-1.64l.98-.53c5.94.1,9.33.56,9.89-6.56l2.86-.53-8.35,22.26-19.46-7.46c-.13-5.61,9.62-5.21,13.9-5.52-.91,3.06.56,2.86,0,5.56,3.31.22,6.46.35,5.17-3.73-1.39-4.41-3.21-1.97-5.17-1.82Z"/>
      <path class="cls-2" d="M483.66,521.84l-14.68-5.14,5.46-19.87c2.08.41.28,4.06.51,5.66.98,6.84,6.1,8.58,10.48,12.6l-1.78,6.74Z"/>
      <path class="cls-2" d="M361.26,439.31l-1.89-13.47,2.17-21.04,2.5-8.15c-.49,3.51,4.17,7.99,4.27,10.65.08,2.18-4.83,15.81-5.68,19.92-.82,3.94-1.49,8.03-1.37,12.09Z"/>
      <path class="cls-2" d="M544.93,290.9l-32.06,6.42-6.9-6.42c12.95-1.6,25.98-1.05,38.96,0Z"/>
      <path class="cls-2" d="M526.36,350.3c.65.89-6.08,17.5-8.31,15.73-1.98-3.02,1.35-6.27.78-8.62-.52-2.11-3.79-2.94-4.89-4.43-.8-1.09-.83-2.8-1.59-3.98-1.05-1.64-6.09-5.65-1.13-4.46,4.82,1.15,10.04,4.9,15.15,5.76Z"/>
      <path class="cls-2" d="M622.6,358.89c4.32,3.59,2.76,17.27.75,22.03-1.09,2.58-2.73,1.75-1.96,5.24.26,1.2,7.92,4.71,6.99,8.08-8.8,7.09-7.51-3.95-9.53-10.3-.43-1.34-.86-2.69-1.16-4.06-2.13-9.83-4.03-15.18-6.34-19.34,3.31-.96,8.08-4.29,11.25-1.65Z"/>
      <path class="cls-2" d="M487.42,553.42l-7.45,10.7-12.95-1.44c.13-.96,1.17-1.69,1.92-2.25,2.32-1.74,9.68-7.26,11.72-7.8,1.63-.43,4.7,1.41,6.77.79Z"/>
      <path class="cls-2" d="M503.94,291.08l5.75,7.22-15.76,3.72c-.09-3.77.88-7.19-1.86-10.19l11.88-.75Z"/>
      <path class="cls-2" d="M605.24,517.24l7.63-21.12,9.98-3.93c1.35,1.43-14.65,23.23-17.61,25.05Z"/>
      <path class="cls-2" d="M529.17,311.32c-2.81,1.28-9.15,11.56-10.64,11.72-4.22.46-5.97-5.28-7.11-6.1-.68-.49-4.02,2.2-5.43-.54,1.61-.61,5.23-.86,6.76-.48,1.18.29,1.4,4.42,4.81,3.73,2.14-1.6.1-3.55.48-5.95.18-1.13,1.18-1.99,1.53-3.06.25-.78-1.64-3.62,3.37-2.89,2.37.34,3.7,3.42,6.23,3.58Z"/>
      <path class="cls-2" d="M455.86,297.35c-12.28,3.25-23.66,8.89-35.23,13.94,10.03-8.33,22.15-13.17,33.87-18.53l1.36,4.59Z"/>
      <path class="cls-2" d="M582.04,320.57c-2.3-.1-5,.63-7.03-.85-1.18-.86-7.01-10.26-8.72-12.36-2.09-2.57-6.45-4.72-7.44-9.04l9.76,7.39c3.39,4.2,8.85,7.92,12.04,12.08.71.93,1.8,1.18,1.38,2.78Z"/>
      <path class="cls-2" d="M641.41,409.62c-6.87-3.31-6.75,4.31-12.05,4.64.43-1.71,2.27-.68,2.61-3.45.29-2.37-.92-4.17-.86-6.3.14-4.4,5.57-3.8,7.98-6.94l2.31,12.05Z"/>
      <path class="cls-2" d="M502.26,289.03l-33.39,4.64c1.89-3.24,6.82-2.23,9.51-3,4.43-1.26,18.73-8.17,22.07-5.85.89.62,1.11,3.1,1.81,4.21Z"/>
      <path class="cls-2" d="M613.58,493.11l2.79-10.19c4.05,3.94,9.19-.54,12.97-2.78-1.51,8.41-7.99,11.59-15.76,12.98Z"/>
      <path class="cls-2" d="M543.08,293.68l-15.46,8.18c-4.06-3.45-8.48,1.48-12.36-2.16l27.82-6.02Z"/>
      <path class="cls-2" d="M516.18,303.87c-4.14-1.28-7.18,1.06-11.13,1.88l2.78,1.86-.02,1.34c-3.34,1.71-1.88,7.1-5.54,6.98,3.27-3.36,1-4.05.31-7.09-.64-2.81,2.23-4.57-4.95-4.04,2.46-2.38,11.84-5.16,14.78-4.16.99.34,3.34,2.09,3.78,3.23Z"/>
      <path class="cls-2" d="M504.12,288.11l-.92-3.71c.87-.8,20.54,1.49,23.5,2,1.29.22,5.05.26,5.25,1.71h-27.83Z"/>
      <path class="cls-2" d="M473.51,424.46c-3.48,1.48-4.19,2.54-8.1,1.16-4.87-1.72-6.04-3.65-6.74-8.56l14.84,7.4Z"/>
      <path class="cls-2" d="M473.51,288.12c-.52,2.13-3.53,2.07-4.65,3.26-.88.94-.7,2.65-1.11,3.02-.58.52-8.36,1.63-10,2.05l.53-4.74,15.23-3.59Z"/>
      <path class="cls-2" d="M397.43,521.87c-3.33-2.29-5.86-5.7-8.3-8.85-.92-1.19-6.37-7.95-5.6-8.77,8.14,3.92,11.87,8.82,13.9,17.62Z"/>
      <path class="cls-2" d="M544.01,296.47c-1.59,1.69-5.75,7.14-7.41,7.92-1.42.67-3.68-2.89-5.12-.51-1.24,2.05.94,2.58,2.32,2.81l-2.32,2.76-.46-2.79-3.7.93c-3.07-3.36,14.47-10.49,16.69-11.12Z"/>
      <path class="cls-2" d="M466.09,546.93c-1.97,4.85-5.16,8.28-5.09,13.9-1.02-1.23-2.33-.21-2.39-2.27-.04-1.73,2.21-12.18,3.38-12.46l4.1.83Z"/>
      <path class="cls-2" d="M536.58,315.02c-.09,1.6-2.82.89-4.39,1.62-6.71,3.14,1.95,9.85-5.8,11.35l.95-3.17-2.57-2.87c2.99-4.75,5.5-9,11.81-6.93Z"/>
      <path class="cls-2" d="M592.24,317.79l-17.62-12.97c3.31.65,6.45,3.28,9.17,5.19,1.08.76,9.64,6.57,8.45,7.78Z"/>
      <path class="cls-2" d="M575.55,309.46l12.97,8.8c.51,5.93-12.9-7.44-12.97-8.8Z"/>
      <path class="cls-2" d="M537.5,338.2c-5.34-.23-.39-6.18.48-9.27,4.28,3.96,1.21,5.35-.48,9.27Z"/>
      <path class="cls-2" d="M554.21,303.88c-6.05-.5-4.33-3.92-2.77-8.34,1.84.39,3.22,7.88,2.77,8.34Z"/>
      <path class="cls-2" d="M507.83,373.44c-3.16.23-5.96-1.98-7.42-4.62l4.64-.54,2.78,5.16Z"/>
    </g>
    <path class="cls-2" d="M500.04,275.61c-82.63,0-149.86,67.23-149.86,149.86s67.23,149.86,149.86,149.86,149.86-67.22,149.86-149.86-67.22-149.86-149.86-149.86ZM500.04,570c-11.17,0-22.03-1.28-32.47-3.68-2.86-.66-5.68-1.4-8.47-2.24-8.4-2.47-16.48-5.7-24.15-9.6-.53-.25-1.07-.53-1.58-.82-.25-.11-.48-.23-.71-.37-2.18-1.14-4.35-2.34-6.46-3.62-9.16-5.45-17.67-11.91-25.37-19.19-2.18-2.06-4.31-4.19-6.34-6.39-5.18-5.5-9.91-11.42-14.15-17.68,0-.02-.02-.04-.02-.04-2.13-3.12-4.12-6.34-5.98-9.64-3.5-6.11-6.55-12.52-9.11-19.16-6.28-16.17-9.73-33.75-9.73-52.11,0-78.38,62.72-142.4,140.63-144.48,1.3-.04,2.61-.05,3.91-.05.76,0,1.53,0,2.29.04,10.92.16,21.54,1.54,31.74,4.03,2.61.62,5.18,1.31,7.72,2.09,1.17.34,2.33.71,3.48,1.1,2.24.73,4.44,1.51,6.6,2.36,1.92.73,3.8,1.51,5.66,2.33,6.07,2.63,11.91,5.66,17.51,9.07,7.42,4.53,14.4,9.69,20.86,15.45,21.41,19.01,37.14,44.26,44.31,72.88,2.02,7.97,3.36,16.19,3.96,24.62.27,3.48.39,7.01.39,10.56,0,79.7-64.84,144.53-144.53,144.53Z"/>
    <path class="cls-2" d="M511.18,611.49l7.14,18.59c-11.43,3.04-22.88,3.04-34.32,0l7.1-18.46c-23.68-1.1-46.23-6.68-66.81-15.87l-23.13,31.35,10.1-37.78,1.76-6.6,1.62-6,.39-1.47,2.4-4.05,4.76-8.01c5.08,2.89,10.33,5.5,15.75,7.81l-3.3,8.72c20.1,8.56,42.22,13.3,65.41,13.3,92.39,0,167.54-75.15,167.54-167.54,0-65.26-37.5-121.93-92.09-149.58l-4.78,8.02c-5.29-2.66-10.76-5.04-16.39-7.1l3.3-8.7,1.21-3.21,1.7-2.29,3.71-5.04,4.08-5.52,22.39-30.31-9.6,35.93c62.26,30.2,105.3,94.06,105.3,167.79,0,99.01-77.64,180.25-175.23,186.02Z"/>
    <path class="cls-2" d="M602.73,647.08s-11.18,19.99-102.69,19.99-102.69-19.99-102.69-19.99c0,0,9.45-16.87,81.95-19.58l-2.4,6.21,5.73,1.53c6.13,1.63,12.37,2.45,18.52,2.45s12.39-.82,18.52-2.45l5.73-1.53-2.36-6.13c70.43,2.98,79.68,19.49,79.68,19.49Z"/>
  </g>
  <g>
    <text class="cls-3" transform="translate(424.9 700.18) rotate(-160.52)"><tspan x="0" y="0">Г</tspan></text>
    <text class="cls-3" transform="translate(399.7 691.58) rotate(-153.5)"><tspan x="0" y="0">И</tspan></text>
    <text class="cls-3" transform="translate(366.72 675.47) rotate(-144.69)"><tspan x="0" y="0">М</tspan></text>
    <text class="cls-3" transform="translate(330.94 649.78) rotate(-135.96)"><tspan x="0" y="0">Н</tspan></text>
    <text class="cls-3" transform="translate(304.59 624.25) rotate(-128.09)"><tspan x="0" y="0">А</tspan></text>
    <text class="cls-3" transform="translate(282.5 595.77) rotate(-120.79)"><tspan x="0" y="0">З</tspan></text>
    <text class="cls-3" transform="translate(266.47 569.23) rotate(-113.33)"><tspan x="0" y="0">И</tspan></text>
    <text class="cls-3" transform="translate(251.93 535.23) rotate(-105.5)"><tspan x="0" y="0">Я</tspan></text>
    <text class="cls-3" transform="translate(243.11 501.49) rotate(-100.07)"><tspan x="0" y="0"> </tspan></text>
    <text class="cls-3" transform="translate(239.3 487.99) rotate(-92.42)"><tspan x="0" y="0">№</tspan></text>
    <text class="cls-3" transform="translate(238.28 430.81) rotate(-83.96)"><tspan x="0" y="0">1</tspan></text>
    <text class="cls-3" transform="translate(240.72 409.27) rotate(-79.95)"><tspan x="0" y="0"> </tspan></text>
    <text class="cls-3" transform="translate(243.11 394.61) rotate(-75.31)"><tspan x="0" y="0">Г</tspan></text>
    <text class="cls-3" transform="translate(248.58 371.1) rotate(-68.11)"><tspan x="0" y="0">О</tspan></text>
    <text class="cls-3" transform="translate(265.14 330.98) rotate(-59.82)"><tspan x="0" y="0">Р</tspan></text>
    <text class="cls-3" transform="translate(280.84 303.15) rotate(-51.65)"><tspan x="0" y="0">О</tspan></text>
    <text class="cls-3" transform="translate(306.79 270.47) rotate(-43.17)"><tspan x="0" y="0">Д</tspan></text>
    <text class="cls-3" transform="translate(334.89 244.25) rotate(-35.09)"><tspan x="0" y="0">А</tspan></text>
    <text class="cls-3" transform="translate(365.13 223.71) rotate(-29.52)"><tspan x="0" y="0"> </tspan></text>
    <text class="cls-3" transform="translate(377.17 215.94) rotate(-23.04)"><tspan x="0" y="0">М</tspan></text>
    <text class="cls-3" transform="translate(417.76 198.97) rotate(-14.17)"><tspan x="0" y="0">И</tspan></text>
    <text class="cls-3" transform="translate(453.54 189.96) rotate(-6.12)"><tspan x="0" y="0">Н</tspan></text>
    <text class="cls-3" transform="translate(489.91 185.95) rotate(2.11)"><tspan x="0" y="0">С</tspan></text>
    <text class="cls-3" transform="translate(529.68 187.64) rotate(10)"><tspan x="0" y="0">К</tspan></text>
    <text class="cls-3" transform="translate(563.06 193.5) rotate(17.77)"><tspan x="0" y="0">А</tspan></text>
    <text class="cls-3" transform="translate(597.69 205.21) rotate(23.39)"><tspan x="0" y="0"> </tspan></text>
    <text class="cls-3" transform="translate(611.29 210.68) rotate(28.63)"><tspan x="0" y="0">Р</tspan></text>
    <text class="cls-3" transform="translate(639.89 226.44) rotate(35.4)"><tspan x="0" y="0">Е</tspan></text>
    <text class="cls-3" transform="translate(663.64 242.88) rotate(42.87)"><tspan x="0" y="0">С</tspan></text>
    <text class="cls-3" transform="translate(692.66 270) rotate(51.02)"><tspan x="0" y="0">П</tspan></text>
    <text class="cls-3" transform="translate(715.2 298.06) rotate(58.47)"><tspan x="0" y="0">У</tspan></text>
    <text class="cls-3" transform="translate(732.21 325.86) rotate(65.58)"><tspan x="0" y="0">Б</tspan></text>
    <text class="cls-3" transform="translate(745.46 354.56) rotate(73.12)"><tspan x="0" y="0">Л</tspan></text>
    <text class="cls-3" transform="translate(756.28 390.29) rotate(81.27)"><tspan x="0" y="0">И</tspan></text>
    <text class="cls-3" transform="translate(761.75 426.92) rotate(88.87)"><tspan x="0" y="0">К</tspan></text>
    <text class="cls-3" transform="translate(762.52 460.05) rotate(96.43)"><tspan x="0" y="0">И</tspan></text>
    <text class="cls-3" transform="translate(757.7 497.36) rotate(102.14)"><tspan x="0" y="0"> </tspan></text>
    <text class="cls-3" transform="translate(754.98 511.77) rotate(107.37)"><tspan x="0" y="0">Б</tspan></text>
    <text class="cls-3" transform="translate(745.19 542.65) rotate(114.17)"><tspan x="0" y="0">Е</tspan></text>
    <text class="cls-3" transform="translate(733.44 569.44) rotate(121.48)"><tspan x="0" y="0">Л</tspan></text>
    <text class="cls-3" transform="translate(713.87 601.26) rotate(129.45)"><tspan x="0" y="0">А</tspan></text>
    <text class="cls-3" transform="translate(690.89 628.98) rotate(136.87)"><tspan x="0" y="0">Р</tspan></text>
    <text class="cls-3" transform="translate(668.27 650.26) rotate(143.62)"><tspan x="0" y="0">У</tspan></text>
    <text class="cls-3" transform="translate(644.09 668.54) rotate(151.06)"><tspan x="0" y="0">С</tspan></text>
    <text class="cls-3" transform="translate(609.15 687.57) rotate(158.95)"><tspan x="0" y="0">Ь</tspan></text>
  </g>
  <g>
    <path class="cls-1" d="M576.8,335.8l.27.8c-2.01.55-3.25,2.27-3.69,5.22-1.05.21-2.52.57-3.46,1.99-1.05,1.6-.94,3.66-.82,6.76.04.6.07,1.46.09,2.33-1.31-1.21-2.57-2.56-2.95-3.18.04.07.07.12.09.18l-1.92.43c.05-1.63.04-3.28-.25-4.85-.34-1.78-1.3-3.11-1.99-4.07-.27-.39-.67-.96-.75-1.03.05-.14.3-.59.48-.87.69-1.15,1.85-3.09,1.35-5.68l-.87-4.54.07-3.78-2.96-.09c-.14-.5-.25-1.23-.34-1.76-.36-2.17-.82-4.85-3-6.55l-.53-.43-12.14-3.6-3.44,2.86c.04-.23.07-.46.09-.71l.16-2.72-2.59-.85c-1.01-.34-1.97-.5-2.91-.6l2.7-3.2c.21-.07.43-.16.64-.25,1.62-.76,3.28-2.57,6.68-6.6.73-.87,1.37-1.63,1.79-2.09l.07-.05c-.41,1.85-.41,3.66.69,5.38,1.79,2.79,5.38,3.09,6.57,3.18l1.63.14,1.15-1.15c.37-.37.94-.94,1.1-2.41,1.17,1.49,2.52,2.68,3.66,3.66.82.71,1.6,1.38,2.08,1.97.6.75,2.11,3.02,3.46,5.02,3.71,5.57,4.86,7.19,5.91,7.97.32.23.64.41.98.59.14,3.94,2.13,6.89,3.91,9.5.25.37.5.75.73,1.1l-1.72,2.01Z"/>
    <path class="cls-1" d="M550.4,370.08c-.07-.21-.14-.41-.23-.59-.55-.57-1.15-.92-1.86-1.31-3.66-2.09-5.49-4.6-4.05-11.24v-.07c-.48.07-1.01.12-1.58.12-2.79,0-5.04-1.33-6.36-3.75l-.73-1.35,2.27-6.84,2.33-.07-1.62-3.2-1.24-.05c-1.05-.05-1.9-.25-2.61-.55l-4.42,11.81-.73-.27c-.5,2.09-1.63,5.2-4.03,9.87-2.59,5.11-4.6,7.1-7.14,7.1-.94,0-1.83-.3-2.57-.89l-.44-.36-.32-.48c-2.15-3.3-.92-6.6-.2-8.58.12-.32.28-.75.37-1.07-.32-.23-.8-.55-1.14-.75-1.03-.64-2.2-1.37-3.04-2.5-.8-1.08-1.14-2.25-1.4-3.2-.09-.34-.25-.83-.34-.99-.12-.18-.64-.75-.98-1.1-1.63-1.78-3.44-3.78-2.65-6.23l-.44-.16-.05-2.4c-.18-7.9,9.23-8.75,14.52-9,.12-.2.28-.41.46-.6l.41-.46,1.42-.76,1.33-4.47-1.05-1.17c-1.19,1.26-2.17,1.9-3.41,2.02-.28.04-.59.05-.85.05-4.37,0-6.8-3.39-8.18-5.66-.57.14-1.23.25-1.9.25-1.69,0-3.18-.67-4.24-1.86-.43.09-.85.14-1.33.14l-8.27-.28,5.59-5.73c.28-.3.48-.53.6-.67-.05-.09-.09-.18-.14-.27-.34-.69-.78-1.63-1.07-2.89-.11-.48-.16-.92-.18-1.35-.32.02-.67.04-1.05.07l-9.75.71,2.75-2.68-.43.11-.09-4.39c-.04-.92,0-1.83.04-2.72.11-2.52.11-3.85-.85-5.01l-19.49,2.72c-1.03.89-2.24,1.17-8.13,2.18-.59.11-1.17.21-1.7.3l.07.27-3.53.94c-1.53.39-3.04.85-4.54,1.33,1.37.21,2.57.32,3.64.39,5.4.39,8.4,1.4,12.43,8.97l1.85,3.48-.37.16v.05c.32,2.13-1.05,3.55-1.63,4.14l-.16.16c-1.83,2.68-3.44,5.66-5.17,8.82-1.05,1.92-2.13,3.91-3.3,5.84-1.19,2.01-1.37,2.65-1.7,3.8-.23.78-.51,1.78-1.1,3.27-2.06,5.2-5.33,7.94-8.5,10.58-1.08.91-2.2,1.83-3.3,2.89l-1.01.98-3.23,8.27.21,5.68c.07,1.78.12,3.68-.25,5.66-.02.11-.04.2-.05.3.11,0,.23-.02.34-.02,1.24,0,2.4.59,3.18,1.6,1.38,1.85,1.07,4.4.55,6.25-.67,2.41-.55,2.7-.36,3.18.34.76.85,1.94,1.05,3.98.16,1.74.2,3.52.23,5.24.05,2.95.12,5.72.78,8.33l2.29,8.95-3.64-2.43c-.23.98-.51,2.36-.36,2.88.23.44,1.58,1.72,2.29,2.41,1.63,1.53,3.05,2.89,3.25,4.72,1.3.67,2.86,1.86,5.27,3.76.71.57,1.69,1.35,1.99,1.53.35.23.91.36,1.6.53.2.05.41.11.62.16-2.91-2.18-3.92-5.08-4.49-9.07l-.96-6.68,1.23.6c.46-2.43,1.78-4.65,2.52-5.5,1.19-1.35,2.43-1.9,3.23-2.2.04-.21.07-.51.11-.92l.18-2.82,2.79-.46c.6-.09,1.23-.23,1.85-.36,1.58-.32,3.36-.69,5.22-.69.83,0,1.63.07,2.38.21,1.74.34,3.18,1.49,4.7,2.72.5.39,1.24.99,1.88,1.42.53-.66,1.17-1.01,1.74-1.23l1.08-.39,1.1.32c3.78,1.07,5.68,3.02,7.19,4.58.5.51.98,1.01,1.51,1.46.28.11.89.21,1.12.27.48.09,1.14.21,1.76.6,1.19-3.25,3.59-6.11,8.79-6.11.21,0,.43,0,.66.02l.71.04c1.9-2.33,4.7-5.65,5.27-6.13.05-.05,7.78-4.86,9.91-4.86h.46l.2.05,8.66-6.48,6.76-.34c-.11-.27-.18-.57-.23-.87-.23-.73-.32-1.4-.32-2.04-1.17.51-2.17.83-3.12.83-1.51,0-2.84-.8-3.5-2.11-1.12-2.27.44-4.33.96-5.01l.11-.14.12-.12c1.88-2.02,4.31-3.05,7.17-3.05,2.59,0,5.08.85,7.1,1.53.78.27,1.79.6,2.41.73.78-.57,2.11-1.63,3.25-2.57-.32-.64-.55-1.26-.75-1.76ZM508.08,376.98c-.23.02-.46.02-.69.02-4.01,0-7.88-2.47-10.08-6.46l-2.56-4.63,12.29-1.42,6.53,12.11-5.49.39Z"/>
    <path class="cls-1" d="M564.13,508.31c-.09.85-3.71,2.82-5.26,3.68-2.96,1.62-6.02,3.28-7.99,5.82-1.47,1.92-2.09,3.98-2.59,5.63-.34,1.15-.64,2.15-1.14,2.81-.37.51-1.28,1.03-2.22,1.58-1.65.94-3.69,2.11-4.95,4.39l-.2.34c-2.93-.23-5.98-.44-8.66-.44-4.4,0-9.14.44-11.11,3.75l-.41.69-.18,2.15c-2.91.67-5.5,2.09-7.86,3.37-2.57,1.4-5.01,2.73-7.17,2.73-.48,0-.96-.07-1.44-.21-.91-2.11-2.41-3.18-4.51-3.18-.53,0-1.1.07-1.72.25l-3.64.96,1.63,4.92-8.26,2.47c-.44,0-1.26-.23-1.94-.41-1.07-.28-2.15-.57-3.3-.57-.51,0-1.01.05-1.47.18-1.62.43-4.4,1.99-12.82,8.29l2.13,2.84-2.36-2.66c-.57.43-1.42,1.07-2.09,1.99.23-2.43,1.28-4.44,2.57-6.87.75-1.4,1.53-2.86,2.2-4.53l.36-.85c1.79-1.23,3.04-3.18,4.14-4.86.62-.98,1.22-1.9,1.83-2.63.11-.09.44-.28.69-.43.8-.46,1.9-1.08,2.77-2.27.78-1.03,2.65-4.49,3.62-6.41.96-1.86,1.72-3.41,2.2-4.74l1.14.39,3.3-12.52-1.58-1.46c-1.24-1.15-2.49-2.08-3.69-2.98-3.34-2.52-5.13-3.99-5.66-7.39.04-.21.12-.69.2-1.03.83-4.26-.37-6.25-1.97-7.15.04-1.4-.14-2.7-.62-3.83-.67-1.56-1.76-2.79-2.63-3.78-.21-.23-.5-.55-.71-.83.39-.3,1.08-.76,2.27-1.35l3.43-1.54-1.86-3.25c-.05-.12-.07-.28-.11-.44,1.23-.85,2.15-2.24,3.04-3.62.34-.5.83-1.28.94-1.4.12-.07.53-.2.82-.28.98-.3,2.45-.75,3.5-2.11,1.17-1.56,1.79-3.99,2.5-6.84.14-.51.28-1.08.43-1.63.8.57,1.7.82,2.52.82,1.95,0,3.53-1.24,4.94-2.34.35-.28.89-.71.99-.76.87-.36,1.88-.6,2.98-.82l-.12.28,5.59,4.08,2.43-2.11c2.96,2.38,6.85,3.14,9.92,3.75,1.3.27,2.73.55,3.53.89.07.25.14.62.2.89.21,1.1.48,2.49,1.56,3.59.89.91,1.97,1.19,2.84,1.42.3.09.8.21.89.27.11.11.36.67.5,1.01.5,1.21,1.46,3.48,4.07,4.55l-.78,2.13,4.83.23c1.67.09,4.35,1.97,4.69,3.05.21.67.37,1.62.46,2.45l-2.02-.48-.04,7.24,1.56,1.07c3.96,2.68,8.11,4.14,12.3,4.97l-.43,1.92,10.51,3.96c2.49,2.25,2.5,3.25,2.5,3.27Z"/>
    <path class="cls-1" d="M513.56,376.59l-5.49.39c-.23.02-.46.02-.69.02-4.01,0-7.88-2.47-10.08-6.46l-2.56-4.63,12.29-1.42,6.53,12.11Z"/>
  </g>
  <path class="cls-1" d="M627.78,418.28c-.09-.05-.88-4.69-.88-4.69,0,0,3.97-2.17,2.45-8.29s7.17-7.55,8.3-9.96-6.23-22.33-10.25-30.23c.93,7.49.49,16.81-3.21,19.85,3.48,2.07,7.55,6.73,7.55,6.73,0,0,1.18,4.88-4.66,7.54-4.52,2.06-5.7-.44-5.7-.44,0,0,3.88,16.6,4.12,19.25s2.28.23,2.28.23Z"/>
</svg>